<?xml version="1.0" encoding="utf-8" ?>
<svg xmlns="http://www.w3.org/2000/svg" xmlns:xlink="http://www.w3.org/1999/xlink" width="960" height="960">
	<clipPath id="cl_4">
		<rect width="960" height="959.75"/>
	</clipPath>
	<g clip-path="url(#cl_4)">
		<defs>
			<linearGradient id="gradient_0" gradientUnits="userSpaceOnUse" x1="95.961197" y1="404.85901" x2="416.11899" y2="101.393">
				<stop offset="0" stop-color="#94C9F8"/>
				<stop offset="1" stop-color="#DAF3F7"/>
			</linearGradient>
		</defs>
		<path fill="url(#gradient_0)" transform="matrix(1.125 0 0 1.125 -92.75 -100.125)" d="M340.862 112.506C353.698 111.023 366.688 111.491 379.594 111.487L620.674 111.485C640.322 111.484 662.592 113.001 681.574 112.506C689.96 113.284 698.41 112.717 706.732 114.004C768.252 123.52 822.058 175.127 833.832 236.172C838.068 258.144 836.464 282.052 836.452 304.372L836.46 739.682C836.122 820.774 787.366 884.444 707.768 900.956C687.698 905.12 666.968 904.022 646.58 904.012L350.73 903.982C273.664 903.412 204.446 849.36 188.642 773.392C184.229 752.178 186.008 726.696 186.009 704.824L186.003 386.314C186.002 344.902 181.19 277.242 189.299 237.818C204.052 166.091 266.984 111.484 340.862 112.506Z"/>
		<defs>
			<linearGradient id="gradient_1" gradientUnits="userSpaceOnUse" x1="218.272" y1="171.60001" x2="289.99899" y2="31.303499">
				<stop offset="0" stop-color="#61A7F5"/>
				<stop offset="1" stop-color="#7CD8F9"/>
			</linearGradient>
		</defs>
		<path fill="url(#gradient_1)" transform="matrix(1.125 0 0 1.125 -92.75 -100.125)" d="M340.862 112.506C353.698 111.023 366.688 111.491 379.594 111.487L620.674 111.485C640.322 111.484 662.592 113.001 681.574 112.506C719.034 136.842 719.828 151.053 719.93 194.952C720.046 245.786 710.774 290.726 653.162 308.386C632.378 314.756 610.312 312.486 588.9 312.48L433.85 312.504C407.532 312.504 378.136 315.114 354.12 302.152C307.072 276.764 304.5 240.23 304.418 194.24C304.386 175.1 301.684 155.145 311.302 137.718C316.3 128.664 330.338 115.569 340.862 112.506Z"/>
		<path fill="#B6E5F8" transform="matrix(1.125 0 0 1.125 -92.75 -100.125)" d="M455.794 189.13C462.102 188.689 468.702 189.106 475.044 189.105L548.804 189.114C560.288 189.126 576.554 187.018 585.892 195.252C605.304 212.37 593.422 239.552 565.834 240.74L488.388 240.74C476.782 240.734 460.206 241.81 449.278 240.186C419.806 235.804 418.514 192.108 455.794 189.13Z"/>
		<defs>
			<linearGradient id="gradient_2" gradientUnits="userSpaceOnUse" x1="255.94901" y1="355.138" x2="255.283" y2="382.60599">
				<stop offset="0" stop-color="#C5D0EF"/>
				<stop offset="1" stop-color="#A1ADF4"/>
			</linearGradient>
		</defs>
		<path fill="url(#gradient_2)" transform="matrix(1.125 0 0 1.125 -92.75 -100.125)" d="M546.79 711.856C558.566 711.18 598.01 710.64 607.578 712.702C634.824 718.576 633.954 758.514 607.74 763.236C595.436 765.454 575.532 764.22 562.626 764.222L476.376 764.2L444.202 764.24C434.924 764.302 424.216 765.358 415.188 763.278C386.192 756.598 390.634 718.288 419.05 712.636C428.54 710.748 449.468 711.858 459.916 711.858L546.79 711.856Z"/>
		<defs>
			<linearGradient id="gradient_3" gradientUnits="userSpaceOnUse" x1="256.87" y1="298.18399" x2="255.66" y2="324.90799">
				<stop offset="0" stop-color="#C8D0EE"/>
				<stop offset="1" stop-color="#A4B5F8"/>
			</linearGradient>
		</defs>
		<path fill="url(#gradient_3)" transform="matrix(1.125 0 0 1.125 -92.75 -100.125)" d="M423.276 600.024C435.112 599.424 447.284 600.01 459.152 600.012L578.654 600.002C591.168 599.96 608.732 596.982 619.112 605.674C636.684 620.388 625.82 645.928 604.372 646.962L442.766 646.97C431.632 646.972 416.31 649.114 406.928 641.744C388.298 627.108 399.036 602.66 423.276 600.024Z"/>
		<path fill="#007BFF" transform="matrix(1.125 0 0 1.125 -92.75 -100.125)" d="M256.157 492.298L297.858 392.911L298.664 392.911L340.365 492.298L325.67 492.298L294.442 413.021L303.627 407.026L268.822 492.298L256.157 492.298ZM280.714 456.204L316.099 456.204L320.385 467.29L276.943 467.29L280.714 456.204ZM358.26 396.875L371.054 396.875L371.054 492.298L358.26 492.298L358.26 396.875ZM453.22 435.289L452.833 440.026L454.477 437.577L493.503 396.875L510.067 396.875L470.59 437.835L512.291 492.298L496.081 492.298L461.212 445.956L453.155 453.755L453.22 492.298L440.232 492.298L440.232 396.875L453.22 396.875L453.22 435.289ZM596.125 485.176Q593.805 486.755 589.68 488.753Q585.555 490.719 580.077 492.072Q574.598 493.426 568.088 493.361Q557.002 493.233 548.108 489.398Q539.246 485.563 532.994 478.924Q526.774 472.285 523.422 463.681Q520.103 455.076 520.103 445.312Q520.103 434.612 523.551 425.589Q527.032 416.533 533.38 409.863Q539.761 403.192 548.398 399.518Q557.067 395.812 567.347 395.812Q575.919 395.812 582.913 398.132Q589.906 400.42 594.933 403.514L589.777 415.534Q585.813 412.827 580.173 410.507Q574.534 408.154 567.734 408.154Q560.805 408.154 554.553 410.926Q548.333 413.697 543.564 418.693Q538.827 423.655 536.12 430.294Q533.413 436.933 533.413 444.635Q533.413 452.369 535.862 459.04Q538.311 465.711 542.887 470.642Q547.496 475.54 553.909 478.279Q560.354 481.019 568.346 481.019Q575.662 481.019 581.301 478.827Q586.941 476.604 590.647 473.768L596.125 485.176ZM608.069 492.298L649.771 392.911L650.576 392.911L692.277 492.298L677.582 492.298L646.354 413.021L655.539 407.026L620.734 492.298L608.069 492.298ZM632.626 456.204L668.011 456.204L672.297 467.29L628.855 467.29L632.626 456.204ZM710.173 396.875L722.967 396.875L722.967 479.955L771.5 479.955L771.5 492.298L710.173 492.298L710.173 396.875Z"/>
	</g>
</svg>
